HIERARCHY
ROOT Hips
{
	OFFSET 0.000000 71.427986 0.000000
	CHANNELS 6 Xposition Yposition Zposition Xrotation Yrotation Zrotation
	JOINT Pelvis
	{
		OFFSET 0.000000 0.000000 0.000000
		CHANNELS 3 Xrotation Yrotation Zrotation
		JOINT LeftUpLeg
		{
			OFFSET 6.797100 -2.508499 -1.318700
			CHANNELS 3 Xrotation Yrotation Zrotation
			JOINT LeftLeg
			{
				OFFSET 0.069008 -29.241863 0.690200
				CHANNELS 3 Xrotation Yrotation Zrotation
				JOINT LeftFoot
				{
					OFFSET -0.069008 -29.568123 -0.266800
					CHANNELS 3 Xrotation Yrotation Zrotation
					JOINT LeftToeBase
					{
						OFFSET 3.145500 -8.631000 16.059900
						CHANNELS 3 Xrotation Yrotation Zrotation
						End Site
						{
							OFFSET 0.000000 18.501587 0.000000
						}
					}
				}
			}
			JOINT Left_ShortSleeve
			{
				OFFSET 0.265923 -10.480953 1.153800
				CHANNELS 3 Xrotation Yrotation Zrotation
				End Site
				{
					OFFSET 1.725763 19.823879 0.000000
				}
			}
		}
		JOINT RightUpLeg
		{
			OFFSET -6.797100 -2.508499 -1.318700
			CHANNELS 3 Xrotation Yrotation Zrotation
			JOINT RightLeg
			{
				OFFSET -0.082453 -29.241932 0.688000
				CHANNELS 3 Xrotation Yrotation Zrotation
				JOINT RightFoot
				{
					OFFSET 0.082453 -29.568058 -0.264600
					CHANNELS 3 Xrotation Yrotation Zrotation
					JOINT RightToeBase
					{
						OFFSET -3.115300 -8.682800 16.113400
						CHANNELS 3 Xrotation Yrotation Zrotation
						End Site
						{
							OFFSET 0.000000 18.567114 0.000000
						}
					}
				}
			}
			JOINT Right_ShortSleeve
			{
				OFFSET -0.265923 -10.480953 1.153800
				CHANNELS 3 Xrotation Yrotation Zrotation
				End Site
				{
					OFFSET -1.725766 19.823910 0.000000
				}
			}
		}
	}
	JOINT Spine
	{
		OFFSET 0.000000 13.368103 0.470500
		CHANNELS 3 Xrotation Yrotation Zrotation
		JOINT Spine1
		{
			OFFSET 0.147000 13.837402 0.538800
			CHANNELS 3 Xrotation Yrotation Zrotation
			JOINT Spine2
			{
				OFFSET 0.168000 16.242897 -1.435500
				CHANNELS 3 Xrotation Yrotation Zrotation
				JOINT Neck
				{
					OFFSET 0.217200 18.631500 -1.679100
					CHANNELS 3 Xrotation Yrotation Zrotation
					JOINT Head
					{
						OFFSET 0.000000 6.599396 1.385900
						CHANNELS 3 Xrotation Yrotation Zrotation
						JOINT Hat
						{
							OFFSET -0.532200 27.220596 -10.096100
							CHANNELS 3 Xrotation Yrotation Zrotation
							End Site
							{
								OFFSET 0.000000 22.029861 0.000000
							}
						}
						JOINT HairD
						{
							OFFSET -10.777400 17.437393 -1.325900
							CHANNELS 3 Xrotation Yrotation Zrotation
							JOINT HairD1
							{
								OFFSET -3.290299 -11.051193 1.062200
								CHANNELS 3 Xrotation Yrotation Zrotation
								End Site
								{
									OFFSET 0.000000 11.579437 0.000000
								}
							}
						}
						JOINT HairB
						{
							OFFSET -10.777400 17.437393 1.467900
							CHANNELS 3 Xrotation Yrotation Zrotation
							JOINT HairB1
							{
								OFFSET -1.561200 -12.956299 3.590200
								CHANNELS 3 Xrotation Yrotation Zrotation
								End Site
								{
									OFFSET 0.000000 13.534866 0.000000
								}
							}
						}
						JOINT HairA
						{
							OFFSET 9.713100 17.437393 1.467900
							CHANNELS 3 Xrotation Yrotation Zrotation
							JOINT HairA1
							{
								OFFSET 1.561200 -12.956299 3.590200
								CHANNELS 3 Xrotation Yrotation Zrotation
								End Site
								{
									OFFSET 0.000000 13.534866 0.000000
								}
							}
						}
						JOINT HairC
						{
							OFFSET 9.713100 17.437393 -1.325900
							CHANNELS 3 Xrotation Yrotation Zrotation
							JOINT HairC1
							{
								OFFSET 3.290300 -11.051193 1.062200
								CHANNELS 3 Xrotation Yrotation Zrotation
								End Site
								{
									OFFSET 0.000000 11.579437 0.000000
								}
							}
						}
					}
				}
				JOINT LeftShoulder
				{
					OFFSET 5.101800 15.108002 -2.763700
					CHANNELS 3 Xrotation Yrotation Zrotation
					JOINT LeftArm
					{
						OFFSET 9.825497 2.506317 -1.597400
						CHANNELS 3 Xrotation Yrotation Zrotation
						JOINT LeftForeArm
						{
							OFFSET 21.966244 0.000000 0.000000
							CHANNELS 3 Xrotation Yrotation Zrotation
							JOINT LeftHand
							{
								OFFSET 33.879036 0.000000 0.000000
								CHANNELS 3 Xrotation Yrotation Zrotation
								JOINT LeftHandThumb1
								{
									OFFSET 6.715286 -2.359680 3.363841
									CHANNELS 3 Xrotation Yrotation Zrotation
									JOINT LeftHandThumb2
									{
										OFFSET 2.507072 -1.447464 1.447461
										CHANNELS 3 Xrotation Yrotation Zrotation
										JOINT LeftHandThumb3
										{
											OFFSET 2.898338 -1.673355 1.673357
											CHANNELS 3 Xrotation Yrotation Zrotation
											End Site
											{
												OFFSET -0.295959 3.727692 -0.131651
											}
										}
									}
								}
								JOINT LeftHandIndex1
								{
									OFFSET 14.190811 -0.254547 3.840278
									CHANNELS 3 Xrotation Yrotation Zrotation
									JOINT LeftHandIndex2
									{
										OFFSET 3.551727 0.000000 -0.000000
										CHANNELS 3 Xrotation Yrotation Zrotation
										JOINT LeftHandIndex3
										{
											OFFSET 2.894196 0.000000 0.000000
											CHANNELS 3 Xrotation Yrotation Zrotation
											End Site
											{
												OFFSET -1.000603 2.690872 0.366626
											}
										}
									}
								}
								JOINT LeftHandMiddle1
								{
									OFFSET 13.776489 0.000000 0.000000
									CHANNELS 3 Xrotation Yrotation Zrotation
									JOINT LeftHandMiddle2
									{
										OFFSET 3.438232 0.000000 0.000000
										CHANNELS 3 Xrotation Yrotation Zrotation
										JOINT LeftHandMiddle3
										{
											OFFSET 3.691551 0.000000 0.000000
											CHANNELS 3 Xrotation Yrotation Zrotation
											End Site
											{
												OFFSET -1.082298 3.499527 0.457670
											}
										}
									}
								}
								JOINT LeftHandRing1
								{
									OFFSET 13.966164 -0.268127 -3.067488
									CHANNELS 3 Xrotation Yrotation Zrotation
									JOINT LeftHandRing2
									{
										OFFSET 3.162567 0.000000 0.000000
										CHANNELS 3 Xrotation Yrotation Zrotation
										JOINT LeftHandRing3
										{
											OFFSET 3.324348 0.000000 0.000000
											CHANNELS 3 Xrotation Yrotation Zrotation
											End Site
											{
												OFFSET -0.861900 3.184998 0.405154
											}
										}
									}
								}
								JOINT LeftHandPinky1
								{
									OFFSET 13.131393 -0.168503 -5.746925
									CHANNELS 3 Xrotation Yrotation Zrotation
									JOINT LeftHandPinky2
									{
										OFFSET 2.849182 0.000000 0.000000
										CHANNELS 3 Xrotation Yrotation Zrotation
										JOINT LeftHandPinky3
										{
											OFFSET 2.805038 0.000000 0.000000
											CHANNELS 3 Xrotation Yrotation Zrotation
											End Site
											{
												OFFSET -0.882500 2.642609 0.325652
											}
										}
									}
								}
							}
							JOINT Left_Sleeve
							{
								OFFSET 6.592125 -0.646545 0.805568
								CHANNELS 3 Xrotation Yrotation Zrotation
								End Site
								{
									OFFSET -0.000179 20.275787 -0.000000
								}
							}
						}
					}
				}
				JOINT RightShoulder
				{
					OFFSET -5.731700 15.108002 -2.763700
					CHANNELS 3 Xrotation Yrotation Zrotation
					JOINT RightArm
					{
						OFFSET -9.825497 2.506317 -1.597400
						CHANNELS 3 Xrotation Yrotation Zrotation
						JOINT RightForeArm
						{
							OFFSET -21.966242 0.000000 0.000000
							CHANNELS 3 Xrotation Yrotation Zrotation
							JOINT RightHand
							{
								OFFSET -33.879032 0.000000 0.000000
								CHANNELS 3 Xrotation Yrotation Zrotation
								JOINT RightHandThumb1
								{
									OFFSET -6.715286 -2.359680 3.363841
									CHANNELS 3 Xrotation Yrotation Zrotation
									JOINT RightHandThumb2
									{
										OFFSET -2.507072 -1.447464 1.447461
										CHANNELS 3 Xrotation Yrotation Zrotation
										JOINT RightHandThumb3
										{
											OFFSET -2.898338 -1.673355 1.673357
											CHANNELS 3 Xrotation Yrotation Zrotation
											End Site
											{
												OFFSET 0.295959 3.727692 -0.131651
											}
										}
									}
								}
								JOINT RightHandIndex1
								{
									OFFSET -14.190811 -0.254547 3.840278
									CHANNELS 3 Xrotation Yrotation Zrotation
									JOINT RightHandIndex2
									{
										OFFSET -3.551727 0.000000 -0.000000
										CHANNELS 3 Xrotation Yrotation Zrotation
										JOINT RightHandIndex3
										{
											OFFSET -2.894196 0.000000 0.000000
											CHANNELS 3 Xrotation Yrotation Zrotation
											End Site
											{
												OFFSET 1.000603 2.690872 0.366626
											}
										}
									}
								}
								JOINT RightHandMiddle1
								{
									OFFSET -13.776489 0.000000 0.000000
									CHANNELS 3 Xrotation Yrotation Zrotation
									JOINT RightHandMiddle2
									{
										OFFSET -3.438232 0.000000 0.000000
										CHANNELS 3 Xrotation Yrotation Zrotation
										JOINT RightHandMiddle3
										{
											OFFSET -3.691551 0.000000 0.000000
											CHANNELS 3 Xrotation Yrotation Zrotation
											End Site
											{
												OFFSET 1.082298 3.499527 0.457670
											}
										}
									}
								}
								JOINT RightHandRing1
								{
									OFFSET -13.966164 -0.268127 -3.067488
									CHANNELS 3 Xrotation Yrotation Zrotation
									JOINT RightHandRing2
									{
										OFFSET -3.162567 0.000000 0.000000
										CHANNELS 3 Xrotation Yrotation Zrotation
										JOINT RightHandRing3
										{
											OFFSET -3.324348 0.000000 0.000000
											CHANNELS 3 Xrotation Yrotation Zrotation
											End Site
											{
												OFFSET 0.861900 3.184998 0.405154
											}
										}
									}
								}
								JOINT RightHandPinky1
								{
									OFFSET -13.131393 -0.168503 -5.746925
									CHANNELS 3 Xrotation Yrotation Zrotation
									JOINT RightHandPinky2
									{
										OFFSET -2.849182 0.000000 0.000000
										CHANNELS 3 Xrotation Yrotation Zrotation
										JOINT RightHandPinky3
										{
											OFFSET -2.805038 0.000000 0.000000
											CHANNELS 3 Xrotation Yrotation Zrotation
											End Site
											{
												OFFSET 0.882500 2.642609 0.325652
											}
										}
									}
								}
							}
							JOINT Right_Sleeve
							{
								OFFSET -6.592125 -0.646545 0.805568
								CHANNELS 3 Xrotation Yrotation Zrotation
								End Site
								{
									OFFSET 0.000179 20.275787 -0.000000
								}
							}
						}
					}
				}
				JOINT Bind_Right_JacketString
				{
					OFFSET -3.534800 11.969597 7.200700
					CHANNELS 3 Xrotation Yrotation Zrotation
					JOINT Bind_Right_JacketString1
					{
						OFFSET -0.319900 -6.102600 2.794100
						CHANNELS 3 Xrotation Yrotation Zrotation
						End Site
						{
							OFFSET 0.000000 6.719452 0.000000
						}
					}
				}
				JOINT Bind_Left_JacketString
				{
					OFFSET 2.904800 11.969597 7.200700
					CHANNELS 3 Xrotation Yrotation Zrotation
					JOINT Bind_Left_JacketString1
					{
						OFFSET 0.364800 -5.904503 3.186800
						CHANNELS 3 Xrotation Yrotation Zrotation
						End Site
						{
							OFFSET 0.000000 6.719513 0.000000
						}
					}
				}
				JOINT HairE
				{
					OFFSET 5.915200 17.612701 -11.592200
					CHANNELS 3 Xrotation Yrotation Zrotation
					JOINT HairE1
					{
						OFFSET 0.289200 -7.171898 -1.284500
						CHANNELS 3 Xrotation Yrotation Zrotation
						End Site
						{
							OFFSET 0.000000 7.291756 0.000000
						}
					}
				}
				JOINT HairF
				{
					OFFSET -0.864800 17.612701 -11.592200
					CHANNELS 3 Xrotation Yrotation Zrotation
					JOINT HairF1
					{
						OFFSET 0.000000 -14.087097 -2.127501
						CHANNELS 3 Xrotation Yrotation Zrotation
						End Site
						{
							OFFSET 0.000000 14.246841 0.000000
						}
					}
				}
				JOINT HairG
				{
					OFFSET -8.087700 17.612701 -11.592200
					CHANNELS 3 Xrotation Yrotation Zrotation
					JOINT HairG1
					{
						OFFSET -0.293600 -6.081398 -0.910100
						CHANNELS 3 Xrotation Yrotation Zrotation
						End Site
						{
							OFFSET 0.000000 6.156120 0.000000
						}
					}
				}
			}
		}
	}
	JOINT Pouch
	{
		OFFSET 0.000000 4.394501 10.847300
		CHANNELS 3 Xrotation Yrotation Zrotation
		End Site
		{
			OFFSET 0.000000 21.880577 0.000000
		}
	}
	JOINT Bag
	{
		OFFSET -13.229000 4.813004 -0.593300
		CHANNELS 3 Xrotation Yrotation Zrotation
		End Site
		{
			OFFSET 0.000000 21.880577 0.000000
		}
	}
	JOINT OccupyGuyFacialAnim_Joint
	{
		OFFSET 1.000000 -70.206398 -1.655000
		CHANNELS 3 Xrotation Yrotation Zrotation
		End Site
		{
			OFFSET 0.000000 21.880577 0.000000
		}
	}
}
MOTION
Frames: 5
Frame Time: 0.033333
-8.683130 34.762848 51.294102 23.601539 5.240907 -3.750843 -0.000000 -0.000000 0.000000 -25.340145 5.814820 12.363476 103.067227 2.879094 0.585077 18.764741 0.122695 1.903157 -0.000001 0.000000 0.000001 -0.000000 0.000001 0.000000 -26.672322 -5.128631 -7.002246 98.408853 -7.595282 -3.153155 42.660351 3.041065 17.057673 0.000002 -0.000000 0.000001 -0.000000 -0.000000 -0.000000 3.682105 4.753807 0.852856 1.064028 1.237030 0.346379 1.070332 1.234518 0.345291 11.657553 1.528235 4.011444 12.326752 35.194653 -8.360820 -0.000002 0.000000 -0.000000 -0.000002 0.000000 -0.000000 -0.000002 0.000000 0.000000 -0.000002 0.000000 -0.000000 -0.000001 0.000000 -0.000000 -0.000002 0.000000 -0.000000 -0.000001 0.000000 -0.000000 -0.000002 0.000000 -0.000000 -0.000002 0.000000 -0.000000 0.733973 -1.592783 -18.918227 -12.649635 10.758775 -55.432268 -4.814985 -20.473917 -2.490756 -7.131270 -2.201437 -14.564576 40.109934 -15.297122 -0.360461 5.639892 28.097757 11.338757 0.000001 -0.000000 0.000000 6.882241 2.840056 -61.140418 8.247987 7.640024 -89.897898 -0.000002 -0.000001 -0.000002 -2.345544 4.688849 -62.655245 8.754176 9.897041 -87.051287 0.000002 -0.000000 -0.000001 -9.042509 10.045634 -60.766212 8.524158 9.508854 -66.893104 -0.000001 0.000000 -0.000001 -17.946962 14.754940 -51.485891 8.868420 8.667001 -84.811975 -0.000000 -0.000004 -0.000001 -0.000001 -0.000000 -0.000002 1.052675 2.732373 17.695960 -2.169312 6.132496 55.049009 0.288108 17.048331 -0.097555 -9.552910 -3.236586 9.928088 -10.886059 -10.965851 -8.557935 2.190585 -22.893930 -8.523907 -0.000000 -0.000004 0.000001 0.372742 -6.560168 6.008965 0.777683 -2.883264 25.127050 -0.000000 0.000002 -0.000001 0.566593 -7.546121 12.616037 2.599693 -6.145421 38.164266 -0.000001 -0.000002 0.000001 -1.929177 -6.795685 14.803060 2.754257 -5.293520 37.438186 0.000000 -0.000002 0.000001 -1.216520 -10.177360 22.892800 4.090869 -3.765942 29.362655 0.000004 0.000001 0.000003 -0.000001 -0.000000 -0.000000 0.000001 0.000000 -0.000000 0.000001 -0.000001 -0.000000 0.000001 0.000000 -0.000000 0.000001 0.000000 -0.000000 0.000001 0.000000 -0.000000 0.000001 -0.000001 -0.000000 0.000001 0.000000 -0.000000 0.000001 0.000000 -0.000000 0.000001 0.000000 -0.000000 0.000001 -0.000001 -0.000000 -0.000000 -0.000000 0.000000 -0.000000 -0.000000 0.000000 -0.000000 -0.000000 0.000000 
-8.941108 35.437965 52.558922 25.773393 4.524406 -4.706274 -0.000000 0.000000 -0.000000 -25.249454 7.185350 14.063113 99.508008 3.915650 0.675237 19.806710 -1.149841 1.408947 0.000000 -0.000000 0.000000 -0.000000 0.000000 0.000001 -25.494677 -3.171834 -5.002998 95.359864 -7.512667 -3.555218 41.361843 1.651264 17.579650 -0.000002 0.000001 -0.000001 0.000000 0.000000 -0.000000 3.792176 4.767788 1.330494 1.142422 1.555529 0.265918 1.149256 1.551436 0.264355 10.931106 1.210194 4.452100 5.341408 31.576989 -6.299445 -0.000001 0.000000 -0.000001 -0.000001 0.000000 -0.000001 -0.000001 0.000000 -0.000001 -0.000001 0.000000 -0.000001 0.000001 0.000000 -0.000000 -0.000001 0.000000 -0.000001 0.000001 0.000000 -0.000000 -0.000001 0.000000 -0.000001 -0.000001 0.000000 -0.000001 0.729887 -1.368163 -17.735320 -7.407092 12.522245 -55.508288 1.212269 -24.800297 0.157097 -17.248886 6.207130 -19.678098 40.109934 -15.297124 -0.360460 5.639889 28.097754 11.338759 -0.000000 0.000002 0.000002 6.882239 2.840056 -61.140418 8.247985 7.640023 -89.897905 0.000001 0.000000 -0.000000 -2.345546 4.688850 -62.655245 8.754172 9.897039 -87.051294 0.000003 -0.000001 0.000006 -9.042508 10.045635 -60.766212 8.524158 9.508856 -66.893090 -0.000001 0.000000 -0.000001 -17.946959 14.754940 -51.485887 8.868425 8.667005 -84.811968 -0.000002 0.000002 -0.000000 0.000001 0.000000 0.000001 1.122195 2.303590 17.501503 2.911055 7.378492 54.944224 0.299082 16.796369 -0.036532 -4.101897 -2.240909 11.682582 -10.890777 -10.963838 -8.565240 2.190733 -22.893268 -8.524100 -0.000002 -0.000001 0.000001 0.552052 -6.964093 8.587373 0.893360 -3.119142 26.939748 0.000001 0.000000 -0.000001 0.670963 -7.950800 15.118395 2.809323 -6.392113 40.187727 -0.000001 -0.000003 0.000001 -2.218206 -6.887195 16.898709 2.979282 -5.576548 39.575704 -0.000001 0.000002 0.000002 -1.246256 -10.471716 25.016987 4.294976 -4.132886 31.892960 -0.000005 -0.000001 0.000000 -0.000001 0.000001 -0.000000 -0.000002 0.000000 -0.000001 -0.000000 0.000000 -0.000000 -0.000002 0.000000 -0.000000 -0.000002 0.000000 -0.000000 -0.000002 0.000000 -0.000001 -0.000000 0.000000 -0.000000 -0.000002 0.000000 -0.000000 -0.000002 0.000000 -0.000000 -0.000002 0.000000 -0.000001 -0.000000 0.000000 -0.000000 -0.000000 0.000000 -0.000000 -0.000000 0.000000 -0.000000 -0.000000 0.000000 -0.000000 
-9.081541 35.804085 54.067444 27.115807 4.138888 -5.492086 -0.000002 0.000000 0.000000 -24.270083 8.027829 14.890577 96.556431 4.733271 0.861088 20.527954 -1.601336 0.327476 0.000000 0.000000 -0.000000 0.000000 -0.000001 0.000001 -23.903984 -1.032553 -3.357590 93.374485 -7.365761 -3.980256 40.079963 0.305347 18.213109 0.000001 -0.000001 0.000000 -0.000000 0.000000 -0.000000 3.763799 4.698046 1.581683 1.254571 1.574786 0.313659 1.261714 1.570429 0.312964 10.588270 0.956534 4.940936 1.350041 28.327132 -4.013625 0.000001 0.000002 -0.000001 0.000001 0.000002 -0.000001 0.000001 0.000002 -0.000001 0.000001 0.000002 -0.000001 0.000001 -0.000002 0.000001 0.000001 0.000002 -0.000001 0.000001 -0.000002 0.000001 0.000001 0.000002 -0.000001 0.000001 0.000002 -0.000001 0.702465 -1.384758 -16.285990 -3.911376 13.442077 -55.150072 -0.017473 -26.127835 -0.392240 -19.539672 11.054689 -23.867959 40.109938 -15.297120 -0.360461 5.639891 28.097756 11.338759 -0.000000 0.000002 0.000001 6.882240 2.840055 -61.140418 8.247990 7.640026 -89.897905 0.000003 0.000001 -0.000000 -2.345549 4.688849 -62.655245 8.754176 9.897043 -87.051294 0.000002 -0.000001 0.000009 -9.042508 10.045636 -60.766212 8.524158 9.508855 -66.893090 -0.000002 0.000000 0.000002 -17.946959 14.754942 -51.485894 8.868422 8.667008 -84.811975 0.000000 -0.000001 0.000003 0.000000 -0.000001 0.000001 1.159957 1.952493 17.298294 7.857824 8.945061 55.220211 0.301247 16.468553 -0.095967 -1.427012 -1.334376 12.197205 -10.895443 -10.962260 -8.571535 2.190938 -22.892696 -8.524242 -0.000000 -0.000001 -0.000001 0.716864 -7.364423 11.180821 1.033434 -3.381892 28.994976 -0.000002 0.000003 -0.000003 0.793818 -8.351516 17.661056 3.041499 -6.658064 42.396159 -0.000000 0.000001 0.000001 -2.484210 -6.975962 19.146077 3.231271 -5.869681 41.862960 0.000002 -0.000003 0.000001 -1.220914 -10.786178 27.293424 4.537864 -4.526174 34.678202 -0.000001 0.000000 0.000001 0.000001 0.000000 0.000000 -0.000002 0.000000 -0.000001 0.000000 0.000001 -0.000000 -0.000002 0.000000 -0.000001 -0.000002 0.000000 -0.000001 -0.000002 0.000000 -0.000001 0.000000 0.000001 -0.000000 -0.000002 0.000000 -0.000001 -0.000002 0.000000 -0.000001 -0.000002 0.000000 -0.000001 0.000000 0.000001 -0.000000 -0.000002 0.000000 0.000000 -0.000002 0.000000 0.000000 -0.000002 0.000000 0.000000 
-9.174648 35.700584 55.832664 28.631041 4.286004 -6.268009 -0.000001 0.000000 -0.000000 -23.585225 8.165967 15.590696 95.044746 3.999880 0.959939 20.160423 -0.669865 -1.364366 -0.000002 0.000000 0.000000 -0.000000 0.000002 0.000001 -22.838184 0.677137 -2.045669 92.960234 -7.318181 -4.427677 37.983095 -0.872311 18.961853 0.000000 -0.000001 0.000001 0.000001 -0.000000 -0.000000 3.537136 4.235173 1.851072 1.204019 1.166443 0.373352 1.210425 1.162188 0.373371 10.361758 0.852709 5.356748 -0.918088 26.028601 -2.175362 -0.000000 -0.000003 -0.000000 -0.000000 -0.000003 -0.000000 -0.000000 -0.000003 0.000000 -0.000000 -0.000003 -0.000002 0.000001 -0.000003 0.000002 -0.000000 -0.000003 -0.000002 0.000001 -0.000003 0.000002 -0.000000 -0.000003 -0.000000 -0.000000 -0.000003 -0.000000 0.678228 -1.526512 -15.315350 -0.937603 16.331723 -54.596420 -0.366981 -29.677356 -0.547560 -20.686464 10.080226 -26.927362 40.109931 -15.297124 -0.360461 5.639890 28.097756 11.338759 0.000000 0.000001 -0.000001 6.882238 2.840055 -61.140418 8.247987 7.640028 -89.897905 0.000001 0.000002 0.000002 -2.345549 4.688849 -62.655245 8.754172 9.897043 -87.051294 0.000000 -0.000000 0.000004 -9.042509 10.045634 -60.766212 8.524156 9.508860 -66.893090 0.000001 0.000000 0.000002 -17.946966 14.754940 -51.485891 8.868418 8.667001 -84.811975 -0.000001 -0.000000 0.000001 -0.000000 0.000000 -0.000001 1.164847 1.686066 17.064623 12.639980 10.900384 55.832193 0.302227 16.108822 -0.102386 -1.324853 -1.599681 12.859225 -10.899755 -10.960921 -8.576950 2.191112 -22.892176 -8.524315 -0.000000 0.000000 -0.000000 0.869679 -7.759515 13.756432 1.196509 -3.661906 31.232816 -0.000001 0.000001 -0.000005 0.933698 -8.744106 20.208476 3.298776 -6.929805 44.737100 -0.000000 0.000000 0.000001 -2.727085 -7.061730 21.495840 3.506691 -6.164644 44.251505 0.000002 0.000001 0.000005 -1.144493 -11.107920 29.674812 4.819747 -4.932632 37.648706 -0.000000 -0.000001 -0.000003 0.000001 0.000000 0.000000 -0.000001 0.000001 -0.000000 0.000001 -0.000000 0.000001 -0.000001 0.000001 -0.000000 -0.000001 0.000001 -0.000000 -0.000001 0.000001 -0.000000 0.000001 -0.000000 0.000000 -0.000001 0.000001 -0.000000 -0.000001 0.000001 -0.000000 -0.000001 0.000001 -0.000000 0.000001 -0.000000 0.000000 -0.000001 0.000000 -0.000000 -0.000001 0.000000 -0.000000 -0.000001 0.000000 -0.000000 
-9.234469 35.301689 57.788815 30.490104 4.505805 -7.112588 0.000001 0.000000 -0.000000 -23.489738 8.175365 16.703287 94.540596 4.230246 1.099778 19.100569 -0.937275 -2.615168 -0.000000 -0.000000 0.000001 -0.000000 0.000000 0.000000 -22.093707 2.097727 -1.026239 93.104569 -7.587194 -4.875179 35.591122 -1.611688 19.412837 -0.000001 -0.000001 0.000001 -0.000000 0.000001 -0.000001 2.904949 3.659758 2.142914 0.988464 0.929272 0.299254 0.994075 0.925651 0.299422 10.106255 0.852576 5.626520 -3.084022 24.554923 -0.953229 0.000002 -0.000003 0.000001 0.000002 -0.000003 0.000001 0.000002 -0.000003 0.000001 0.000002 -0.000003 0.000001 -0.000001 -0.000001 0.000001 0.000002 -0.000003 0.000001 -0.000001 -0.000001 0.000001 0.000002 -0.000003 0.000001 0.000002 -0.000003 0.000001 0.674610 -1.519446 -15.082779 1.348692 23.592353 -54.167573 -0.093657 -37.808177 -0.174676 -17.990351 9.873453 -29.979702 40.109931 -15.297122 -0.360461 5.639887 28.097759 11.338759 0.000001 -0.000000 0.000000 6.882240 2.840055 -61.140411 8.247987 7.640024 -89.897905 0.000000 -0.000001 -0.000002 -2.345550 4.688848 -62.655245 8.754171 9.897041 -87.051287 0.000003 0.000001 0.000001 -9.042511 10.045633 -60.766212 8.524158 9.508854 -66.893090 -0.000002 -0.000001 -0.000000 -17.946964 14.754940 -51.485891 8.868418 8.667000 -84.811975 0.000000 -0.000002 0.000001 -0.000001 0.000000 -0.000001 1.137793 1.504374 16.780364 17.237912 13.237027 56.698394 0.301814 15.813403 -0.104022 -3.116360 -1.729838 12.879879 -10.903750 -10.959915 -8.581532 2.191285 -22.891746 -8.524310 -0.000001 -0.000002 0.000001 1.012081 -8.146814 16.281586 1.380209 -3.949978 33.593619 -0.000000 -0.000002 -0.000005 1.087731 -9.123768 22.724951 3.576743 -7.199157 47.157573 -0.000001 0.000001 0.000001 -2.946240 -7.145158 23.899416 3.801021 -6.453966 46.692546 0.000005 0.000002 0.000006 -1.022261 -11.425985 32.113487 5.138435 -5.339295 40.734832 0.000003 0.000001 -0.000001 0.000001 -0.000000 -0.000000 0.000001 0.000001 -0.000000 0.000001 0.000001 -0.000000 0.000001 0.000001 -0.000000 0.000001 0.000001 -0.000000 0.000001 0.000001 -0.000000 0.000001 0.000001 -0.000000 0.000001 0.000001 -0.000000 0.000001 0.000001 -0.000000 0.000001 0.000001 -0.000000 0.000001 0.000001 -0.000000 0.000001 0.000000 -0.000000 0.000001 0.000000 -0.000000 0.000001 0.000000 -0.000000 
